<svg width="150" height="64" viewBox="0 0 150 64" fill="none" xmlns="http://www.w3.org/2000/svg">
<path d="M35.152 21.1931C35.152 20.0891 35.488 19.2371 36.16 18.6371C36.856 18.0131 37.744 17.7011 38.824 17.7011C39.952 17.7011 40.852 18.0131 41.524 18.6371C42.196 19.2371 42.532 20.0891 42.532 21.1931V36.5291C42.532 36.9851 42.652 37.3091 42.892 37.5011C43.132 37.6691 43.528 37.5971 44.08 37.2851C45.28 36.5891 46.348 36.0371 47.284 35.6291C48.22 35.1971 49.252 34.9811 50.38 34.9811C51.94 34.9811 53.116 35.3891 53.908 36.2051C54.7 37.0211 55.096 38.0891 55.096 39.4091C55.096 40.8251 54.664 41.9171 53.8 42.6851C52.96 43.4531 51.604 43.8371 49.732 43.8371H42.316C40.732 43.8371 39.412 43.6571 38.356 43.2971C37.3 42.9131 36.496 42.2291 35.944 41.2451C35.416 40.2611 35.152 38.8331 35.152 36.9611V21.1931ZM65.1026 43.9811C62.2946 43.9811 60.0506 43.1531 58.3706 41.4971C56.7146 39.8171 55.8866 37.4531 55.8866 34.4051C55.8866 32.5331 56.2706 30.8891 57.0386 29.4731C57.8066 28.0571 58.8746 26.9531 60.2426 26.1611C61.6346 25.3451 63.2546 24.9371 65.1026 24.9371C67.1666 24.9371 68.8826 25.3451 70.2506 26.1611C71.6186 26.9531 72.6386 28.0571 73.3106 29.4731C74.0066 30.8891 74.3546 32.5331 74.3546 34.4051C74.3546 37.4531 73.5866 39.8171 72.0506 41.4971C70.5386 43.1531 68.2226 43.9811 65.1026 43.9811ZM60.1706 33.7931C60.1706 34.5371 60.5426 35.0651 61.2866 35.3771C62.0306 35.6651 63.3026 35.8091 65.1026 35.8091C66.9026 35.8091 68.1746 35.6651 68.9186 35.3771C69.6626 35.0651 70.0346 34.5371 70.0346 33.7931C70.0346 33.0731 69.6626 32.5691 68.9186 32.2811C68.1746 31.9931 66.9026 31.8491 65.1026 31.8491C63.3026 31.8491 62.0306 31.9931 61.2866 32.2811C60.5426 32.5691 60.1706 33.0731 60.1706 33.7931ZM84.4928 51.3251C83.0288 51.3251 81.7808 51.1691 80.7488 50.8571C79.7408 50.5451 78.7688 50.0651 77.8328 49.4171C77.0168 48.8411 76.4408 48.0371 76.1048 47.0051C75.7688 45.9731 75.9368 44.9291 76.6088 43.8731C77.0408 43.2251 77.5208 42.7811 78.0488 42.5411C78.6008 42.3011 79.1288 42.2051 79.6328 42.2531C80.1608 42.2771 80.6168 42.3851 81.0008 42.5771C81.8408 42.9851 82.4888 43.2851 82.9448 43.4771C83.4248 43.6451 83.9648 43.7291 84.5648 43.7291C85.4528 43.7291 86.1968 43.4171 86.7968 42.7931C87.4208 42.1691 87.7328 41.2931 87.7328 40.1651V37.2491H87.0848C86.9168 38.5211 86.4248 39.5291 85.6088 40.2731C84.8168 40.9931 83.7248 41.3531 82.3328 41.3531C81.2768 41.3531 80.2448 41.0891 79.2368 40.5611C78.2288 40.0331 77.4008 39.1931 76.7528 38.0411C76.1048 36.8891 75.7808 35.3651 75.7808 33.4691C75.7808 30.6851 76.3928 28.6091 77.6168 27.2411C78.8408 25.8731 80.4248 25.1891 82.3688 25.1891C83.7128 25.1891 84.8648 25.6451 85.8248 26.5571C86.7848 27.4451 87.2648 28.6931 87.2648 30.3011L87.3728 30.2651V28.2491C87.3728 27.4091 87.6368 26.6771 88.1648 26.0531C88.7168 25.4051 89.5688 25.0811 90.7208 25.0811C91.9448 25.0811 92.8208 25.4051 93.3488 26.0531C93.9008 26.6771 94.1768 27.4091 94.1768 28.2491L94.2128 39.5891C94.2368 42.0851 93.9248 44.2091 93.2768 45.9611C92.6528 47.7131 91.6208 49.0451 90.1808 49.9571C88.7648 50.8691 86.8688 51.3251 84.4928 51.3251ZM81.8288 32.8571C81.8288 34.1531 82.6928 34.8011 84.4208 34.8011C85.5488 34.8011 86.3408 34.6451 86.7968 34.3331C87.2528 34.0211 87.4808 33.5291 87.4808 32.8571C87.4808 32.1611 87.2408 31.6811 86.7608 31.4171C86.3048 31.1531 85.5128 31.0211 84.3848 31.0211C83.5688 31.0211 82.9328 31.1531 82.4768 31.4171C82.0448 31.6811 81.8288 32.1611 81.8288 32.8571ZM105.11 43.9811C102.302 43.9811 100.058 43.1531 98.3784 41.4971C96.7224 39.8171 95.8944 37.4531 95.8944 34.4051C95.8944 32.5331 96.2784 30.8891 97.0464 29.4731C97.8144 28.0571 98.8824 26.9531 100.25 26.1611C101.642 25.3451 103.262 24.9371 105.11 24.9371C107.174 24.9371 108.89 25.3451 110.258 26.1611C111.626 26.9531 112.646 28.0571 113.318 29.4731C114.014 30.8891 114.362 32.5331 114.362 34.4051C114.362 37.4531 113.594 39.8171 112.058 41.4971C110.546 43.1531 108.23 43.9811 105.11 43.9811ZM100.178 33.7931C100.178 34.5371 100.55 35.0651 101.294 35.3771C102.038 35.6651 103.31 35.8091 105.11 35.8091C106.91 35.8091 108.182 35.6651 108.926 35.3771C109.67 35.0651 110.042 34.5371 110.042 33.7931C110.042 33.0731 109.67 32.5691 108.926 32.2811C108.182 31.9931 106.91 31.8491 105.11 31.8491C103.31 31.8491 102.038 31.9931 101.294 32.2811C100.55 32.5691 100.178 33.0731 100.178 33.7931Z" fill="#FFB525"/>
</svg>
